<?xml version="1.0" encoding="iso-8859-1"?>
<!-- Generator: Adobe Illustrator 19.0.0, SVG Export Plug-In . SVG Version: 6.00 Build 0)  -->
<svg version="1.1" id="Layer_1" xmlns="http://www.w3.org/2000/svg" xmlns:xlink="http://www.w3.org/1999/xlink" x="0px" y="0px"
	 viewBox="0 0 512 512" style="enable-background:new 0 0 512 512;" xml:space="preserve">
<rect x="42.442" y="13.474" style="fill:#F4A026;" width="346.274" height="485.053"/>
<rect x="388.716" y="13.474" style="fill:#EFEFEF;" width="80.842" height="86.232"/>
<rect x="388.716" y="99.705" style="fill:#CA463D;" width="80.842" height="86.232"/>
<rect x="388.716" y="185.937" style="fill:#EFEFEF;" width="80.842" height="84.884"/>
<rect x="388.716" y="270.821" style="fill:#CA463D;" width="80.842" height="86.232"/>
<path style="fill:#EFEFEF;" d="M293.726,230.4H243.2v-51.874c0-14.883-12.064-26.947-26.947-26.947s-26.947,12.064-26.947,26.947
	V230.4h-50.526c-14.883,0-26.947,12.064-26.947,26.947c0,14.883,12.064,26.947,26.947,26.947h50.526v49.179
	c0,14.883,12.064,26.947,26.947,26.947s26.947-12.064,26.947-26.947v-49.179h50.526c14.883,0,26.947-12.064,26.947-26.947
	C320.674,242.464,308.609,230.4,293.726,230.4z"/>
<path d="M470.232,0h-80.842H43.116c-7.442,0-14.147,6.034-14.147,13.474v485.053c0,7.44,6.706,13.474,14.147,13.474h346.274
	c7.442,0,12.8-6.033,12.8-13.474v-128h68.042c7.442,0,12.8-6.034,12.8-13.474V13.474C483.032,6.034,477.673,0,470.232,0z
	 M456.084,172.463h-53.895v-59.284h53.895V172.463z M402.189,199.411h53.895v57.937h-53.895V199.411z M456.084,86.232h-53.895
	V26.947h53.895V86.232z M375.242,485.053H55.916V26.947h319.326V485.053z M456.084,343.579h-53.895v-59.284h53.895V343.579z"/>
<path d="M293.726,216.926h-37.053v-38.4c0-22.288-18.133-40.421-40.421-40.421s-40.421,18.133-40.421,40.421v38.4h-37.053
	c-22.288,0-40.421,18.133-40.421,40.421s18.133,40.421,40.421,40.421h37.053v35.705c0,22.288,18.133,40.421,40.421,40.421
	s40.421-18.133,40.421-40.421v-35.705h37.053c22.288,0,40.421-18.133,40.421-40.421S316.014,216.926,293.726,216.926z
	 M293.726,270.821h-49.853c-7.441,0-14.147,6.034-14.147,13.474v49.179c0,7.429-6.044,13.474-13.474,13.474
	s-13.474-6.044-13.474-13.474v-49.179c0-7.44-5.358-13.474-12.8-13.474h-51.2c-7.429,0-13.474-6.044-13.474-13.474
	c0-7.429,6.044-13.474,13.474-13.474h51.2c7.442,0,12.8-6.034,12.8-13.474v-51.874c0-7.429,6.044-13.474,13.474-13.474
	s13.474,6.044,13.474,13.474V230.4c0,7.44,6.706,13.474,14.147,13.474h49.853c7.429,0,13.474,6.044,13.474,13.474
	C307.2,264.777,301.156,270.821,293.726,270.821z"/>
<g>
</g>
<g>
</g>
<g>
</g>
<g>
</g>
<g>
</g>
<g>
</g>
<g>
</g>
<g>
</g>
<g>
</g>
<g>
</g>
<g>
</g>
<g>
</g>
<g>
</g>
<g>
</g>
<g>
</g>
</svg>
